# xmcd
#
# Track frame offsets:
#	150
#	13853
#	35458
#	55491
#	71537
#	87383
#	102317
#	120352
#	138013
#	154236
#	180562
#	195135
#	212435
#	223738
#
# Disc length: 3257 seconds
#
# Revision: 2
# Processed by: cddbd v1.5.2PL0 Copyright (c) Steve Scherf et al.
# Submitted via: audiograbber 1.83.01
#
DISCID=bb0cb70e
DTITLE=Stone River Boys - Love on the dial
DYEAR=2010
DGENRE=Country
TTITLE0=Bluebonnet Blue
TTITLE1=Can I change my mind
TTITLE2=The struggle
TTITLE3=Think I'm gonna make it up
TTITLE4=Lovers prison
TTITLE5=40 acres
TTITLE6=Love on the dial
TTITLE7=Still the feeling
TTITLE8=Special
TTITLE9=Take a giant step
TTITLE10=Love's gonna make it
TTITLE11=Martha
TTITLE12=Steel city
TTITLE13=Boomerang
EXTD=
EXTT0=
EXTT1=
EXTT2=
EXTT3=
EXTT4=
EXTT5=
EXTT6=
EXTT7=
EXTT8=
EXTT9=
EXTT10=
EXTT11=
EXTT12=
EXTT13=
PLAYORDER=
